w<svg id="Layer_1" data-name="Layer 1" xmlns="http://www.w3.org/2000/svg" viewBox="0 0 194.34 245.45"><defs><style>.cls-1{fill:none;stroke:#231f20;}.cls-2,.cls-4,.cls-5{fill:#fff;}.cls-3{fill:#231f20;}.cls-4{font-size:16.12px;}.cls-4,.cls-5{font-family:Times Bold;font-weight:700;}.cls-5{font-size:16.11px;}</style></defs><title>did you know</title><path d="M200.54,86.59A93.49,93.49,0,1,1,89.42,14.94,93.49,93.49,0,0,1,200.54,86.59ZM47.94,142.7A71.21,71.21,0,1,0,72.78,45.11,71.21,71.21,0,0,0,47.94,142.7Z" transform="translate(-11.98 15.24)"/><circle class="cls-1" cx="109.15" cy="106.32" r="68.49" transform="translate(-31.97 40.68) rotate(-12.19)"/><circle class="cls-1" cx="109.15" cy="106.32" r="96.65" transform="translate(-31.97 40.68) rotate(-12.19)"/><circle class="cls-2" cx="177.49" cy="133.29" r="2.4"/><circle class="cls-2" cx="16.53" cy="133.29" r="2.4"/><path class="cls-3" d="M144.66,51.22q0,2-1.54,2h-39.5q-1.17,0-1.76-2H99.72V68.39h3q0.41-13,13.12-13H119V102q0,4.12-1.42,5.64t-5.53,1.56v2.15h15.09c1-1.36,1.88-2.48,2.7-3.4-1.67-1.17-2.52-3.14-2.52-5.94V55.38h2.48q13.8,0,13.94,13h3V51.22h-2.15Z" transform="translate(-11.98 15.24)"/><path class="cls-3" d="M125.91,127.56a14.39,14.39,0,0,1-3.16-4.26,11,11,0,0,1-1.07-4.76q0-6.53,6-11.42a21.68,21.68,0,0,1,14.1-4.9,36.05,36.05,0,0,1,10.81,2.27v14.27h-3.28a15.81,15.81,0,0,0-3.67-9.73,10.31,10.31,0,0,0-8.06-3.78,9.05,9.05,0,0,0-6.43,2.38,7.85,7.85,0,0,0-2.54,6,10,10,0,0,0,2.52,6.52q2.47,3,11.87,9.38,7.13,4.8,9.65,7.74a11.16,11.16,0,0,1,2.47,7.34q0,7.12-6.57,12.67a22.46,22.46,0,0,1-14.9,5.55A38.61,38.61,0,0,1,120.29,160V143.63h3a16.92,16.92,0,0,0,4,11.53,12.32,12.32,0,0,0,9.58,4.63,10.89,10.89,0,0,0,8-2.95,10.12,10.12,0,0,0,3-7.48,10.73,10.73,0,0,0-2.41-6.94q-2.41-2.95-11-8.62Q129.87,130.73,125.91,127.56Z" transform="translate(-11.98 15.24)"/><path class="cls-3" d="M65.79,88.7H85.62l1.23,15.21a3,3,0,0,1-.09,1q-0.4,1.46-1.23,1.46H84.38l-0.27,1a52.57,52.57,0,0,1,14.2-1.81A5.39,5.39,0,0,1,96.55,103a29.21,29.21,0,0,1-1.62-8.17L91.3,50.12H88.62L57.41,95.88q-7,10.2-12.15,10.46l-0.57,2.07H65l0.57-2.07h-2.4a4.14,4.14,0,0,1-3.49-1.4,3.88,3.88,0,0,1-.48-3.59Q60.34,97.19,65.79,88.7ZM83.51,62.78L85.4,86H67.72Z" transform="translate(-11.98 15.24)"/><path class="cls-3" d="M114.21,152.49q-14.42,12.38-26.28,12.37-9.69,0-17.39-7.37t-7.71-20.28a32.35,32.35,0,0,1,4-16.13,34.62,34.62,0,0,1,11.34-12q7.34-4.85,17.66-4.85a51.49,51.49,0,0,1,17,2.78V120.8h-3a13.32,13.32,0,0,0-5.71-10.12A20.51,20.51,0,0,0,91.89,107q-9.91,0-15.57,7.22T70.65,132q0,11.35,6.41,18.84a20.68,20.68,0,0,0,16.46,7.49q10,0,20.69-8.59v2.78Z" transform="translate(-11.98 15.24)"/><text class="cls-4" transform="translate(27.43 89.93) rotate(-62.33) scale(0.9 1)">A</text><text class="cls-4" transform="matrix(0.5, -0.75, 0.83, 0.56, 31.31, 82.49)">C</text><text class="cls-4" transform="matrix(0.58, -0.69, 0.76, 0.64, 35.85, 75.66)">A</text><text class="cls-4" transform="translate(41.35 69.07) rotate(-43.11) scale(0.9 1)">D</text><text class="cls-4" transform="matrix(0.72, -0.54, 0.6, 0.8, 48.24, 62.7)">E</text><text class="cls-4" transform="translate(53.61 58.46) rotate(-30.22) scale(0.9 1)">M</text><text class="cls-4" transform="translate(63.46 52.83) rotate(-23.25) scale(0.9 1)">Y</text><text class="cls-4" transform="translate(70.53 49.88) rotate(-19.3) scale(0.9 1)"> </text><text class="cls-4" transform="matrix(0.87, -0.24, 0.27, 0.96, 73.28, 48.84)">F</text><text class="cls-4" transform="translate(79.78 46.93) rotate(-9.38) scale(0.9 1)">O</text><text class="cls-4" transform="matrix(0.9, -0.05, 0.05, 1, 89.36, 45.39)">R</text><text class="cls-4" transform="translate(96.99 45.08) rotate(1.07) scale(0.9 1)"> </text><text class="cls-4" transform="translate(99.31 45.04) rotate(4.35) scale(0.9 1)">T</text><text class="cls-4" transform="translate(106.29 45.57) rotate(9.55) scale(0.9 1)">E</text><text class="cls-4" transform="matrix(0.87, 0.24, -0.26, 0.97, 113.08, 46.67)">C</text><text class="cls-4" transform="translate(120.96 48.75) rotate(21.6) scale(0.9 1)">H</text><text class="cls-4" transform="matrix(0.79, 0.43, -0.48, 0.88, 129.48, 52.11)">N</text><text class="cls-4" transform="matrix(0.73, 0.52, -0.58, 0.81, 137.6, 56.47)">O</text><text class="cls-4" transform="translate(145.47 62.18) rotate(41.68) scale(0.9 1)">L</text><text class="cls-4" transform="translate(150.06 66.11) rotate(47.43) scale(0.9 1)">O</text><text class="cls-4" transform="matrix(0.52, 0.73, -0.81, 0.58, 156.61, 73.24)">G</text><text class="cls-4" transform="translate(161.88 80.66) rotate(60.67) scale(0.9 1)">Y</text><text class="cls-5" transform="translate(29.55 178.56) rotate(47.07) scale(0.9 1)">&amp;</text><text class="cls-5" transform="matrix(0.66, 0.61, -0.68, 0.73, 35.94, 185.25)"> </text><text class="cls-5" transform="matrix(0.7, 0.56, -0.63, 0.78, 38.48, 187.72)">C</text><text class="cls-5" transform="translate(45.34 193.27) rotate(32.57) scale(0.9 1)">O</text><text class="cls-5" transform="translate(54.52 199.12) rotate(24.99) scale(0.9 1)">M</text><text class="cls-5" transform="matrix(0.85, 0.28, -0.31, 0.95, 65.87, 204.23)">P</text><text class="cls-5" transform="translate(73.86 206.87) rotate(12.27) scale(0.9 1)">U</text><text class="cls-5" transform="matrix(0.89, 0.1, -0.11, 0.99, 83.69, 208.92)">T</text><text class="cls-5" transform="translate(91.44 209.77) rotate(1.46) scale(0.9 1)">E</text><text class="cls-5" transform="translate(99.2 209.95) rotate(-3.81) scale(0.9 1)">R</text><text class="cls-5" transform="translate(107.43 209.31) rotate(-7.66) scale(0.9 1)"> </text><text class="cls-5" transform="translate(110.71 208.87) rotate(-9.83) scale(0.9 1)"> </text><text class="cls-5" transform="translate(114.14 208.32) rotate(-13.43) scale(0.9 1)">S</text><text class="cls-5" transform="translate(121.73 206.51) rotate(-18.92) scale(0.9 1)">C</text><text class="cls-5" transform="translate(130.09 203.53) rotate(-23.08) scale(0.9 1)">I</text><text class="cls-5" transform="translate(133.69 202.05) rotate(-26.75) scale(0.9 1)">E</text><text class="cls-5" transform="matrix(0.76, -0.48, 0.54, 0.84, 140.68, 198.56)">N</text><text class="cls-5" transform="matrix(0.7, -0.56, 0.63, 0.78, 149.33, 192.96)">C</text><text class="cls-5" transform="matrix(0.64, -0.63, 0.7, 0.72, 156.32, 187.26)">E</text></svg>